Coordinates
version=1
nRows=49
nColumns=12
inDegrees=yes

Units are S.I. units (second, meters, Newtons, ...)
Angles are in degrees

endheader
time	SC_y	SC_z	SC_x	AC_y	AC_z	AC_x	GH_y	GH_z	GH_yy	EL_x	PS_y
       0.0              -11.33          12.85          6.228          35.35         -10.48          8.712          73.01          21.67         -152.2          112.1          68.68
  0.006747              -11.34          12.85          6.232          35.35         -10.48          8.711          73.02          21.67         -152.2          112.1          68.68
   0.01349              -11.34          12.85          6.236          35.36         -10.48          8.711          73.02          21.67         -152.2          112.1          68.67
   0.02024              -11.35          12.85           6.24          35.36         -10.47           8.71          73.03          21.67         -152.2          112.0          68.66
   0.02699              -11.36          12.84          6.245          35.36         -10.47           8.71          73.03          21.67         -152.1          112.0          68.65
   0.03373              -11.36          12.84           6.25          35.36         -10.47          8.709          73.04          21.67         -152.1          112.0          68.64
   0.04048              -11.37          12.84          6.255          35.36         -10.46          8.709          73.05          21.67         -152.1          112.0          68.63
   0.04723              -11.38          12.84           6.26          35.36         -10.46          8.708          73.06          21.68         -152.1          112.0          68.62
   0.05397              -11.39          12.84          6.266          35.36         -10.46          8.707          73.06          21.68         -152.1          112.0           68.6
   0.06072               -11.4          12.84          6.273          35.36         -10.45          8.707          73.07          21.68         -152.1          112.0          68.59
   0.06747              -11.41          12.84          6.279          35.36         -10.45          8.706          73.08          21.68         -152.1          112.0          68.57
   0.07421              -11.42          12.84          6.287          35.36         -10.44          8.705          73.09          21.68         -152.1          112.0          68.56
   0.08096              -11.43          12.84          6.295          35.36         -10.44          8.704           73.1          21.68         -152.0          112.0          68.54
   0.08771              -11.44          12.83          6.303          35.36         -10.43          8.703          73.12          21.68         -152.0          112.0          68.52
   0.09445              -11.46          12.83          6.313          35.36         -10.43          8.702          73.13          21.68         -152.0          112.0           68.5
    0.1012              -11.47          12.83          6.323          35.37         -10.42          8.701          73.14          21.68         -152.0          112.0          68.48
    0.1079              -11.49          12.83          6.334          35.37         -10.41            8.7          73.16          21.68         -152.0          112.0          68.46
    0.1147               -11.5          12.83          6.346          35.37         -10.41          8.698          73.17          21.68         -151.9          112.0          68.43
    0.1214              -11.52          12.82          6.359          35.37          -10.4          8.697          73.19          21.68         -151.9          112.0           68.4
    0.1282              -11.54          12.82          6.373          35.37         -10.39          8.695          73.21          21.68         -151.9          112.0          68.37
    0.1349              -11.57          12.82          6.389          35.37         -10.38          8.693          73.23          21.68         -151.9          111.9          68.34
    0.1417              -11.59          12.82          6.406          35.38         -10.37          8.691          73.26          21.69         -151.8          111.9           68.3
    0.1484              -11.62          12.81          6.425          35.38         -10.35          8.689          73.28          21.69         -151.8          111.9          68.26
    0.1552              -11.65          12.81          6.446          35.38         -10.34          8.686          73.31          21.69         -151.7          111.9          68.22
    0.1619              -11.68           12.8          6.469          35.38         -10.32          8.684          73.34          21.69         -151.7          111.9          68.17
    0.1687              -11.72           12.8          6.496          35.39         -10.31          8.681          73.38          21.69         -151.6          111.9          68.11
    0.1754              -11.76           12.8          6.525          35.39         -10.29          8.677          73.42          21.69         -151.6          111.8          68.05
    0.1822              -11.81          12.79          6.558           35.4         -10.27          8.674          73.47           21.7         -151.5          111.8          67.98
    0.1889              -11.87          12.78          6.595           35.4         -10.24          8.669          73.52           21.7         -151.4          111.8           67.9
    0.1957              -11.93          12.78          6.638           35.4         -10.21          8.664          73.57           21.7         -151.4          111.8          67.81
    0.2024               -12.0          12.77          6.686          35.41         -10.18          8.659          73.64           21.7         -151.3          111.7           67.7
    0.2091              -12.08          12.76          6.741          35.42         -10.15          8.652          73.72          21.71         -151.2          111.7          67.58
    0.2159              -12.17          12.75          6.805          35.43          -10.1          8.645           73.8          21.71         -151.0          111.6          67.45
    0.2226              -12.28          12.73           6.88          35.43         -10.06          8.636          73.91          21.72         -150.9          111.6          67.29
    0.2294              -12.41          12.72          6.967          35.45         -9.999          8.626          74.03          21.72         -150.7          111.5           67.1
    0.2361              -12.55           12.7          7.069          35.46         -9.932          8.614          74.17          21.73         -150.5          111.4          66.88
    0.2429              -12.73          12.68          7.191          35.47         -9.853            8.6          74.33          21.74         -150.3          111.4          66.62
    0.2496              -12.94          12.65          7.337          35.49         -9.757          8.583          74.53          21.75         -150.0          111.3           66.3
    0.2564               -13.2          12.62          7.514          35.51         -9.641          8.563          74.78          21.76         -149.6          111.1          65.93
    0.2631              -13.51          12.58           7.73          35.54           -9.5          8.538          75.07          21.78         -149.2          111.0          65.46
    0.2699               -13.9          12.53          7.997          35.57         -9.326          8.507          75.44           21.8         -148.6          110.8          64.89
    0.2766              -14.38          12.48          8.329          35.61         -9.109          8.468           75.9          21.82         -148.0          110.5          64.18
    0.2834              -14.99           12.4          8.748          35.67         -8.835           8.42          76.47          21.85         -147.1          110.2          63.28
    0.2901              -15.77          12.31           9.28          35.73         -8.487          8.358           77.2          21.89         -146.1          109.8          62.14
    0.2969              -16.75          12.19          9.961          35.82         -8.041          8.279          78.14          21.93         -144.7          109.3          60.68
    0.3036              -18.02          12.03          10.84          35.93          -7.47          8.177          79.34          21.99         -143.0          108.7           58.8
    0.3103              -19.65          11.83          11.95          36.06          -6.74          8.048          80.87          22.07         -140.7          107.9           56.4
    0.3171              -21.69          11.58          13.36          36.24         -5.822          7.885           82.8          22.17         -137.9          106.9          53.39
    0.3238              -24.17          11.28          15.07          36.45         -4.703          7.687          85.15          22.29         -134.5          105.6          49.72
